<svg width="23" height="22" viewBox="0 0 23 22" fill="none" xmlns="http://www.w3.org/2000/svg">
<path d="M9.08031 20.1721C9.58387 19.6638 9.96939 19.0502 10.2094 18.3751C10.4494 17.7001 10.5379 16.9801 10.4687 16.2667L10.4939 16.2907C10.4232 15.4507 10.5361 14.6053 10.8247 13.8135C11.1133 13.0218 11.5706 12.3029 12.1647 11.7069C12.7589 11.1109 13.4754 10.6523 14.2644 10.363C15.0534 10.0737 15.8959 9.96078 16.7329 10.0321L16.7076 10.0081C17.7083 10.1022 18.7137 9.88419 19.5864 9.38387C20.4591 8.88356 21.1568 8.12526 21.5844 7.21239C22.012 6.29951 22.1485 5.27651 21.9756 4.28287C21.8026 3.28923 21.3283 2.37334 20.6176 1.66008C19.907 0.946828 18.9942 0.470935 18.0042 0.297308C17.0141 0.123668 15.9947 0.260762 15.0852 0.689855C14.1755 1.11895 13.42 1.81918 12.9215 2.69504C12.4229 3.57091 12.2056 4.57979 12.2994 5.58408L12.2755 5.56008C12.3462 6.39988 12.2333 7.24504 11.9448 8.03656C11.6564 8.82808 11.1994 9.5469 10.6056 10.1428C10.0118 10.7388 9.29553 11.1975 8.50684 11.4869C7.71814 11.7763 6.87601 11.8897 6.03921 11.8187L6.06313 11.8427C5.24549 11.7691 4.42255 11.9039 3.67061 12.2345C2.91867 12.565 2.26202 13.0807 1.76153 13.7338C1.26105 14.3867 0.932916 15.1561 0.807525 15.9702C0.682148 16.7845 0.763576 17.6173 1.04426 18.3914C1.32495 19.1657 1.79584 19.8562 2.41326 20.3991C3.03069 20.9422 3.77469 21.3199 4.57632 21.4975C5.37794 21.675 6.21126 21.6466 6.99907 21.415C7.78686 21.1833 8.50362 20.7558 9.08296 20.1721H9.08031Z" fill="white" fill-opacity="0.8"/>
</svg>
