<svg width="41" height="40" viewBox="0 0 41 40" fill="none" xmlns="http://www.w3.org/2000/svg">
<path fill-rule="evenodd" clip-rule="evenodd" d="M20.4407 39.1591C31.3565 39.1591 40.2055 30.4232 40.2055 19.6469C40.2055 8.87068 31.3565 0.134766 20.4407 0.134766C9.52497 0.134766 0.676025 8.87068 0.676025 19.6469C0.676025 30.4232 9.52497 39.1591 20.4407 39.1591ZM26.6066 9.22437C26.9068 8.17189 25.8722 7.54953 24.9273 8.21408L11.7375 17.4904C10.7128 18.2111 10.8739 19.6469 11.9796 19.6469H15.4528V19.6204H22.222L16.7064 21.5417L14.2749 30.0696C13.9747 31.1221 15.0092 31.7444 15.9542 31.0798L29.144 21.8035C30.1687 21.0828 30.0075 19.6469 28.9019 19.6469H23.6348L26.6066 9.22437Z" fill="white" fill-opacity="0.8"/>
</svg>
